<svg xmlns="http://www.w3.org/2000/svg" xmlns:xlink="http://www.w3.org/1999/xlink" viewBox="0 0 820.34 848.9"><defs><style>.cls-1{fill:url(#åçûìßííûé_ãðàäèåíò_7);}.cls-2{fill:url(#åçûìßííûé_ãðàäèåíò_9);}.cls-3{fill:url(#åçûìßííûé_ãðàäèåíò_8);}.cls-4{fill:url(#åçûìßííûé_ãðàäèåíò_8-2);}.cls-5{fill:url(#åçûìßííûé_ãðàäèåíò_8-3);}</style><linearGradient id="åçûìßííûé_ãðàäèåíò_7" x1="3989.32" y1="-0.71" x2="4344.18" y2="478.73" gradientTransform="matrix(-1, 0, 0, 1, 4554.58, 0)" gradientUnits="userSpaceOnUse"><stop offset="0" stop-color="#00c291"/><stop offset="1" stop-color="#52ffc0"/></linearGradient><linearGradient id="åçûìßííûé_ãðàäèåíò_9" x1="3872.3" y1="334.98" x2="4548.04" y2="889.92" gradientTransform="matrix(-1, 0, 0, 1, 4554.58, 0)" gradientUnits="userSpaceOnUse"><stop offset="0" stop-color="#4751ed"/><stop offset="1" stop-color="#3898ff"/></linearGradient><linearGradient id="åçûìßííûé_ãðàäèåíò_8" x1="3917.99" y1="298.08" x2="4340.81" y2="649.16" gradientTransform="matrix(-1, 0, 0, 1, 4554.58, 0)" gradientUnits="userSpaceOnUse"><stop offset="0" stop-color="#fe7b26"/><stop offset="1" stop-color="#fca52b"/></linearGradient><linearGradient id="åçûìßííûé_ãðàäèåíò_8-2" x1="3973.78" y1="334.58" x2="4089.02" y2="334.58" xlink:href="#åçûìßííûé_ãðàäèåíò_8"/><linearGradient id="åçûìßííûé_ãðàäèåíò_8-3" x1="4199.99" y1="334.58" x2="4315.23" y2="334.58" xlink:href="#åçûìßííûé_ãðàäèåíò_8"/></defs><g id="Layer_2" data-name="Layer 2"><g id="_Layer_" data-name="&lt;Layer&gt;"><path class="cls-1" d="M119.89,69.86H315.3c56.16,0,50-29.69,50-69.86H455c0,40.45-6.05,69.86,50,69.86H699.51c87.79,0,120.83,41.53,120.83,147.26V277H730.88c-.4-30.07-.82-59.75-1.22-61.54C721.87,180.78,701.87,168,666.47,168H511.65c-60.41,0-89.68-17.94-101-66.08C398.37,150.09,369.11,168,308.69,168H153.87c-47.19,0-67,22.66-67,89.68,0,0,0,13,.08,19.25H0V217.12C0,111.39,33,69.86,119.89,69.86Z"/><path class="cls-2" d="M90.68,633.48c7.79,34.64,27.79,47.39,63.19,47.39H308.69c60.41,0,89.68,17.93,101,66.08,12.27-48.15,41.53-66.08,101.95-66.08H666.47c47.2,0,67-22.66,67-89.68,0,0-.6-98.68-1.44-199h88.29V631.78c0,105.73-33,147.26-119.89,147.26H505c-56.16,0-50,29.69-50,69.86H365.33c0-40.45,6.05-69.86-50-69.86H120.83C33,779,0,737.51,0,631.78V392.2H87.88C88.81,500.55,90.11,630.94,90.68,633.48Z"/><path class="cls-3" d="M648.75,459.12v53.94s-119.48,58.88-238.58,58.88-238.58-58.88-238.58-58.88V459.12c72.55,24.14,153.57,37.81,238.58,37.86S576.2,483.26,648.75,459.12Z"/><path class="cls-4" d="M523.18,277a57.62,57.62,0,1,1-57.62,57.62A57.62,57.62,0,0,1,523.18,277Z"/><polygon class="cls-5" points="239.36 303.06 265.45 276.96 296.98 308.48 328.5 276.96 354.6 303.06 323.07 334.58 354.6 366.1 328.5 392.2 296.98 360.68 265.45 392.2 239.36 366.1 270.88 334.58 239.36 303.06"/></g></g></svg>