<?xml version="1.0" encoding="utf-8"?>
<!-- Generator: Adobe Illustrator 26.3.0, SVG Export Plug-In . SVG Version: 6.00 Build 0)  -->
<svg version="1.1" id="_x3C_Layer_x3E_" xmlns="http://www.w3.org/2000/svg" xmlns:xlink="http://www.w3.org/1999/xlink" x="0px"
	 y="0px" viewBox="0 0 3727.3 870.6" style="enable-background:new 0 0 3727.3 870.6;" xml:space="preserve">
<style type="text/css">
	.st0{display:none;fill:#0F223C;}
	.st1{fill:url(#SVGID_1_);}
	.st2{fill:url(#SVGID_00000008841503214038435120000001389409649382430097_);}
	.st3{fill:url(#SVGID_00000086665823421373033390000016028595687332022964_);}
	.st4{fill:url(#SVGID_00000116201314318991631060000013194001937553936266_);}
	.st5{fill:url(#SVGID_00000017482180295564053030000001666066048380746624_);}
	.st6{fill:url(#SVGID_00000111891625036600261880000012759773316608671387_);}
	.st7{fill:url(#SVGID_00000096045927607204345800000013420609431580107673_);}
	.st8{fill:url(#SVGID_00000038411187400988722450000017934044473059831681_);}
	.st9{fill:url(#SVGID_00000099657335288409835490000009931019136195623081_);}
</style>
<rect x="0" y="-4.4" class="st0" width="4002" height="874.7"/>
<g>
	<g>
		
			<linearGradient id="SVGID_1_" gradientUnits="userSpaceOnUse" x1="802.8207" y1="8.719" x2="1157.6842" y2="488.1618" gradientTransform="matrix(-1 0 0 1 2187.9126 0)">
			<stop  offset="0" style="stop-color:#00C291"/>
			<stop  offset="1" style="stop-color:#52FFC0"/>
		</linearGradient>
		<path class="st1" d="M939.7,79.3h195.4c56.2,0,50-29.7,50-69.9h89.7c0,40.5-6,69.9,50,69.9h194.5c87.8,0,120.8,41.5,120.8,147.3
			v59.8h-89.5c-0.4-30.1-0.8-59.7-1.2-61.5c-7.8-34.6-27.8-47.4-63.2-47.4h-154.8c-60.4,0-89.7-17.9-101-66.1
			c-12.3,48.1-41.5,66.1-102,66.1H973.7c-47.2,0-67,22.7-67,89.7c0,0,0,13,0.1,19.3h-86.9v-59.8C819.8,120.8,852.9,79.3,939.7,79.3z
			"/>
		
			<linearGradient id="SVGID_00000096043666989513317490000015248375984186600383_" gradientUnits="userSpaceOnUse" x1="685.796" y1="344.41" x2="1361.5431" y2="899.3525" gradientTransform="matrix(-1 0 0 1 2187.9126 0)">
			<stop  offset="0" style="stop-color:#4751ED"/>
			<stop  offset="1" style="stop-color:#3898FF"/>
		</linearGradient>
		<path style="fill:url(#SVGID_00000096043666989513317490000015248375984186600383_);" d="M910.5,642.9
			c7.8,34.6,27.8,47.4,63.2,47.4h154.8c60.4,0,89.7,17.9,101,66.1c12.3-48.1,41.5-66.1,102-66.1h154.8c47.2,0,67-22.7,67-89.7
			c0,0-0.6-98.7-1.4-199h88.3v239.6c0,105.7-33,147.3-119.9,147.3h-195.4c-56.2,0-50,29.7-50,69.9h-89.7c0-40.5,6-69.9-50-69.9
			H940.7c-87.8,0-120.8-41.5-120.8-147.3V401.6h87.9C908.6,510,909.9,640.4,910.5,642.9z"/>
		
			<linearGradient id="SVGID_00000034777476269964393980000002140492186824690080_" gradientUnits="userSpaceOnUse" x1="731.4914" y1="307.5086" x2="1154.3081" y2="658.5977" gradientTransform="matrix(-1 0 0 1 2187.9126 0)">
			<stop  offset="0" style="stop-color:#FE7B26"/>
			<stop  offset="1" style="stop-color:#FCA52B"/>
		</linearGradient>
		<path style="fill:url(#SVGID_00000034777476269964393980000002140492186824690080_);" d="M1468.6,468.5v53.9
			c0,0-119.5,58.9-238.6,58.9c-119.1,0-238.6-58.9-238.6-58.9v-53.9c72.6,24.1,153.6,37.8,238.6,37.9
			C1315,506.4,1396,492.7,1468.6,468.5z"/>
		<g>
			
				<linearGradient id="SVGID_00000135673218736507793810000002101819949721297282_" gradientUnits="userSpaceOnUse" x1="787.2791" y1="344.0121" x2="902.5209" y2="344.0121" gradientTransform="matrix(-1 0 0 1 2187.9126 0)">
				<stop  offset="0" style="stop-color:#FE7B26"/>
				<stop  offset="1" style="stop-color:#FCA52B"/>
			</linearGradient>
			<path style="fill:url(#SVGID_00000135673218736507793810000002101819949721297282_);" d="M1343,286.4c31.8,0,57.6,25.8,57.6,57.6
				c0,31.8-25.8,57.6-57.6,57.6c-31.8,0-57.6-25.8-57.6-57.6C1285.4,312.2,1311.2,286.4,1343,286.4z"/>
			
				<linearGradient id="SVGID_00000030447918234910258500000014677796413564756666_" gradientUnits="userSpaceOnUse" x1="1013.4855" y1="344.0119" x2="1128.7271" y2="344.0119" gradientTransform="matrix(-1 0 0 1 2187.9126 0)">
				<stop  offset="0" style="stop-color:#FE7B26"/>
				<stop  offset="1" style="stop-color:#FCA52B"/>
			</linearGradient>
			<polygon style="fill:url(#SVGID_00000030447918234910258500000014677796413564756666_);" points="1059.2,312.5 1085.3,286.4 
				1116.8,317.9 1148.3,286.4 1174.4,312.5 1142.9,344 1174.4,375.5 1148.3,401.6 1116.8,370.1 1085.3,401.6 1059.2,375.5 
				1090.7,344 			"/>
		</g>
	</g>
</g>
<g>
	<g>
		
			<linearGradient id="SVGID_00000003080779496951048410000005735078470206179007_" gradientUnits="userSpaceOnUse" x1="26.5745" y1="434.2523" x2="655.387" y2="434.2523">
			<stop  offset="0" style="stop-color:#00C291"/>
			<stop  offset="1" style="stop-color:#52FFC0"/>
		</linearGradient>
		<path style="fill:url(#SVGID_00000003080779496951048410000005735078470206179007_);" d="M26.6,858.2V10.3H159v418.8L489.9,10.3
			H644L300.5,431.4l-17.1,18.3L129.3,625.4L159,514.7v343.5H26.6z M468.2,795.4c-15.2-28.1-32.8-58.1-52.8-89.9
			s-40.6-63.7-61.9-95.9c-21.3-32.1-41.8-63-61.3-92.4c-19.6-29.5-36.6-56.2-51.1-80.2l45.7-30.8l47.9-53.6
			c7.2,12.9,19.2,32.2,36,57.9c16.7,25.7,36.1,55.2,58.2,88.5c22.1,33.3,44.9,67.8,68.5,103.6c23.6,35.8,46,70.5,67.3,104.1
			c21.3,33.7,39.4,63.6,54.2,89.9c4.2,6.8,8.2,13.7,12.2,20.5s8,13.7,12,20.5s8.1,13.7,12.3,20.5H502.5c-5-7.6-9.3-15.7-13.1-24.2
			C485.5,825.4,478.5,812.6,468.2,795.4z"/>
	</g>
</g>
<g>
	<g>
		
			<linearGradient id="SVGID_00000129911636628267118560000017499731224556809903_" gradientUnits="userSpaceOnUse" x1="1802.158" y1="435.8059" x2="3706.9812" y2="435.8059">
			<stop  offset="0" style="stop-color:#00C291"/>
			<stop  offset="1" style="stop-color:#52FFC0"/>
		</linearGradient>
		<path style="fill:url(#SVGID_00000129911636628267118560000017499731224556809903_);" d="M1802.2,859.7V11.8c7.6,0,15.1,0,22.5,0
			c7.4,0,14.7,0,22,0c7.2,0,14.5,0,21.7,0c17.9,0,37.7-0.8,59.3-2.3c21.7-1.5,44.6-3,68.8-4.6c24.2-1.5,48.8-2.3,73.9-2.3
			c137.7,0,239.7,35.9,305.8,107.6c66.2,71.7,99.3,172,99.3,301c0,96.6-17,179.4-51.1,248.2c-34,68.9-82.5,121.4-145.2,157.5
			c-62.8,36.1-136.9,53.4-222.5,51.9c-30.1-0.8-63.5-2.5-100.4-5.1c-36.9-2.7-70-4-99.3-4c-6.1,0-12.2,0-18.3,0s-12.2,0-18.2,0
			C1814.3,859.7,1808.3,859.7,1802.2,859.7z M1936.8,758.2c18.2,3.8,40.2,6.6,65.9,8.3c25.7,1.7,50.1,2.4,73.3,2
			c50.6-0.8,95.4-12.7,134.4-35.9c39-23.2,69.5-59.5,91.6-109s33.1-113.7,33.1-192.9c0-81.8-10.8-146.7-32.5-194.9
			s-54.1-82.6-97.3-103.6s-96.9-31.4-161.2-31.4c-22.1,0-42.4,0.8-61.1,2.3c-18.6,1.5-34,3.4-46.2,5.7V758.2z"/>
		
			<linearGradient id="SVGID_00000098927213412331730170000007362845606518884020_" gradientUnits="userSpaceOnUse" x1="1802.158" y1="435.8059" x2="3706.9812" y2="435.8059">
			<stop  offset="0" style="stop-color:#00C291"/>
			<stop  offset="1" style="stop-color:#52FFC0"/>
		</linearGradient>
		<path style="fill:url(#SVGID_00000098927213412331730170000007362845606518884020_);" d="M2638.1,859.7V11.8h134.7v847.9H2638.1z"
			/>
		
			<linearGradient id="SVGID_00000183942684951776897760000003031044875594097077_" gradientUnits="userSpaceOnUse" x1="1802.158" y1="435.8059" x2="3706.9812" y2="435.8059">
			<stop  offset="0" style="stop-color:#00C291"/>
			<stop  offset="1" style="stop-color:#52FFC0"/>
		</linearGradient>
		<path style="fill:url(#SVGID_00000183942684951776897760000003031044875594097077_);" d="M3321.1,868.8
			c-78.8,1.5-146.8-16.5-204.3-53.9s-101.4-89.6-131.8-156.3c-30.4-66.8-44.7-143.1-42.8-229.1c1.9-94.7,20.6-173.6,56.2-236.8
			c35.6-63.1,82.9-110.5,142.1-142.1c59.2-31.6,125.1-47.5,197.7-47.9c75.3-0.4,140.9,17.2,196.8,52.8s99,85.9,129.2,150.9
			c30.2,65,44.4,141.3,42.5,228.8c-1.9,94.7-19.8,173.9-53.6,237.7c-33.9,63.7-79.5,111.9-137,144.7S3393.7,867.3,3321.1,868.8z
			 M3324.5,766.1c75.3,0,135.2-28.4,179.7-85.3s66.8-140.7,66.8-251.4c0-58.6-8.8-112.5-26.5-161.8c-17.7-49.2-44.1-88.8-79.3-118.7
			c-35.2-29.9-79-44.8-131.5-44.8c-46,0-88.4,11.8-127.2,35.4c-38.8,23.6-69.9,59.9-93.3,109c-23.4,49.1-35.1,112-35.1,188.9
			c0,58.2,9.2,112.3,27.7,162.3c18.4,50,45.9,90.2,82.5,120.7C3224.6,750.9,3270.1,766.1,3324.5,766.1z"/>
	</g>
</g>
</svg>
